<?xml version="1.0" encoding="UTF-8"?>
<svg width="1236.4" height="310.23" version="1.1" viewBox="0 0 1236.4 310.23" xmlns="http://www.w3.org/2000/svg" xmlns:cc="http://creativecommons.org/ns#" xmlns:dc="http://purl.org/dc/elements/1.1/" xmlns:rdf="http://www.w3.org/1999/02/22-rdf-syntax-ns#">
 <metadata>
  <rdf:RDF>
   <cc:Work rdf:about="">
    <dc:format>image/svg+xml</dc:format>
    <dc:type rdf:resource="http://purl.org/dc/dcmitype/StillImage"/>
   </cc:Work>
  </rdf:RDF>
 </metadata>
 <defs>
  <filter id="filter40" x="0" y="0" width="1" height="1" color-interpolation-filters="sRGB">
   <feColorMatrix result="color2" values="1 0 0 0 0 0 1 0 0 0 0 0 1 0 0 -0.21 -0.72 -0.07 2 0 "/>
  </filter>
  <filter id="filter44" x="0" y="0" width="1" height="1" color-interpolation-filters="sRGB">
   <feColorMatrix result="color2" values="1 0 0 0 0 0 1 0 0 0 0 0 1 0 0 -0.21 -0.72 -0.07 2 0 "/>
  </filter>
  <filter id="filter48" x="0" y="0" width="1" height="1" color-interpolation-filters="sRGB">
   <feColorMatrix result="color2" values="1 0 0 0 0 0 1 0 0 0 0 0 1 0 0 -0.21 -0.72 -0.07 2 0 "/>
  </filter>
  <filter id="filter52" x="0" y="0" width="1" height="1" color-interpolation-filters="sRGB">
   <feColorMatrix result="color2" values="1 0 0 0 0 0 1 0 0 0 0 0 1 0 0 -0.21 -0.72 -0.07 2 0 "/>
  </filter>
  <filter id="filter56" x="0" y="0" width="1" height="1" color-interpolation-filters="sRGB">
   <feColorMatrix result="color2" values="1 0 0 0 0 0 1 0 0 0 0 0 1 0 0 -0.21 -0.72 -0.07 2 0 "/>
  </filter>
  <filter id="filter60" x="0" y="0" width="1" height="1" color-interpolation-filters="sRGB">
   <feColorMatrix result="color2" values="1 0 0 0 0 0 1 0 0 0 0 0 1 0 0 -0.21 -0.72 -0.07 2 0 "/>
  </filter>
  <filter id="filter64" x="0" y="0" width="1" height="1" color-interpolation-filters="sRGB">
   <feColorMatrix result="color2" values="1 0 0 0 0 0 1 0 0 0 0 0 1 0 0 -0.21 -0.72 -0.07 2 0 "/>
  </filter>
 </defs>
 <g fill="#fff">
  <path d="m1038.1 206.3c5.1486 20.72 16.115 35.95 45.315 35.95 24.53 0 44.662-12.26 50.828-29.2 7.3886-20.3-6.0944-27.49-28.796-39.3l-12.489-6.35c-36.096-18.2-56.177-41-38.634-89.2 16.16-44.4 62.292-78.2 115.16-78.2 37.64 0 59.932 13.1 66.948 47.4l-56.874 29.6c-3.5258-18.2-11.866-25.37-28.866-25.37-17.34 0-32.334 11-37.564 25.37-6.4641 17.76 1.9189 24.95 23.315 35.95l12.492 6.34c42.449 21.57 62.845 43.56 44.851 93-19.4 53.3-71.898 82.5-128.13 82.5-54.98 0-80.964-26.2-85.845-60.54zm-211 5.13c3.2945 16.5 6.6771 30.45 27.017 30.45 19.45 0 34.49-7.61 45.26-37.2l73.267-201.3h59.2l-73.558 202.1c-22.311 61.3-68.406 89.2-120.87 89.2-47.4 0-65.922-24.53-69.128-54.075z" filter="url(#filter64)"/>
  <path d="m948.65 12.426v18.686l-220.13-9.4381z" filter="url(#filter60)"/>
  <path d="m935.59 45.127v18.686l-220.13-9.4381z" filter="url(#filter56)"/>
 </g>
 <path d="m924.58 76.493v18.686l-220.13-9.4381z" fill="#fffeff" filter="url(#filter52)"/>
 <g fill="#fff">
  <g>
   <path d="m912.9 106.86v18.686l-220.13-9.4381z" filter="url(#filter48)"/>
   <path d="m902.89 138.23v18.686l-220.13-9.4381z" filter="url(#filter44)"/>
   <path d="m890.87 170.59v18.686l-220.13-9.4381z" filter="url(#filter40)"/>
  </g>
  <g stroke-width="2.1991" aria-label="How fast can you">
   <path d="m-1.7881e-7 227.8h8.6761v26.286h31.526v-26.286h8.6761v64.126h-8.6761v-30.538h-31.526v30.538h-8.6761z"/>
   <path d="m84.442 249.36q-6.3567 0-10.051 4.9823-3.6938 4.9394-3.6938 13.572 0 8.6331 3.6508 13.615 3.6938 4.9394 10.093 4.9394 6.3138 0 10.008-4.9823 3.6938-4.9823 3.6938-13.572 0-8.5472-3.6938-13.53-3.6938-5.0253-10.008-5.0253zm0-6.7003q10.308 0 16.193 6.7003 5.8843 6.7004 5.8843 18.555 0 11.812-5.8843 18.555-5.8843 6.7003-16.193 6.7003-10.351 0-16.235-6.7003-5.8413-6.7433-5.8413-18.555 0-11.854 5.8413-18.555 5.8843-6.7003 16.235-6.7003z"/>
   <path d="m115.02 243.82h7.903l9.8787 37.539 9.8358-37.539h9.3204l9.8787 37.539 9.8358-37.539h7.903l-12.585 48.105h-9.3204l-10.351-39.429-10.394 39.429h-9.3204z"/>
   <path d="m243.88 225.1v6.5715h-7.5594q-4.2521 0-5.9272 1.718-1.6321 1.718-1.6321 6.1849v4.2521h13.014v6.142h-13.014v41.963h-7.9459v-41.963h-7.5594v-6.142h7.5594v-3.3502q0-8.0318 3.7367-11.683 3.7367-3.6938 11.854-3.6938z"/>
   <path d="m272.35 267.75q-9.578 0-13.272 2.1905t-3.6938 7.4735q0 4.2092 2.7489 6.7003 2.7918 2.4482 7.5594 2.4482 6.5715 0 10.523-4.6387 3.9944-4.6816 3.9944-12.413v-1.761zm15.763-3.2643v27.446h-7.903v-7.3016q-2.7059 4.381-6.7433 6.4856-4.0374 2.0616-9.8787 2.0616-7.3876 0-11.769-4.1233-4.338-4.1662-4.338-11.124 0-8.1177 5.4118-12.241 5.4548-4.1233 16.235-4.1233h11.081v-0.77312q0-5.4548-3.6079-8.4184-3.5649-3.0066-10.051-3.0066-4.1233 0-8.0318 0.98787-3.9085 0.98788-7.5164 2.9636v-7.3017q4.338-1.6751 8.4184-2.4912 4.0803-0.85902 7.9459-0.85902 10.437 0 15.591 5.4118 5.1541 5.4118 5.1541 16.407z"/>
   <path d="m335.06 245.24v7.4735q-3.3502-1.718-6.958-2.5771t-7.4735-0.85902q-5.8843 0-8.8479 1.8039-2.9207 1.8039-2.9207 5.4118 0 2.7489 2.1046 4.338 2.1046 1.5462 8.4613 2.9636l2.7059 0.60131q8.4184 1.8039 11.94 5.1112 3.5649 3.2643 3.5649 9.1486 0 6.7003-5.3259 10.609-5.283 3.9085-14.56 3.9085-3.8656 0-8.0748-0.77312-4.1662-0.73016-8.8049-2.2334v-8.1607q4.381 2.2764 8.6331 3.4361 4.2521 1.1167 8.4184 1.1167 5.5836 0 8.5902-1.8898 3.0066-1.9328 3.0066-5.4118 0-3.2213-2.1905-4.9394-2.1475-1.718-9.4922-3.3072l-2.7489-0.64426q-7.3446-1.5462-10.609-4.7246-3.2643-3.2213-3.2643-8.805 0-6.7862 4.8105-10.48 4.8105-3.6938 13.658-3.6938 4.381 0 8.2466 0.64426 3.8656 0.64427 7.1298 1.9328z"/>
   <path d="m358.04 230.16v13.658h16.278v6.142h-16.278v26.114q0 5.8843 1.5892 7.5594 1.6321 1.6751 6.5715 1.6751h8.1177v6.6144h-8.1177q-9.1486 0-12.628-3.3931-3.479-3.4361-3.479-12.456v-26.114h-5.7984v-6.142h5.7984v-13.658z"/>
   <path d="m447.29 245.67v7.3876q-3.3502-1.8469-6.7433-2.7489-3.3502-0.94492-6.7862-0.94492-7.6882 0-11.94 4.8964-4.2521 4.8534-4.2521 13.658t4.2521 13.701q4.2522 4.8535 11.94 4.8535 3.4361 0 6.7862-0.90197 3.3931-0.94492 6.7433-2.7918v7.3016q-3.3072 1.5462-6.8721 2.3194-3.522 0.77312-7.5164 0.77312-10.867 0-17.266-6.8292t-6.3997-18.426q0-11.769 6.4426-18.512 6.4856-6.7433 17.739-6.7433 3.6508 0 7.1299 0.77312 3.479 0.73016 6.7433 2.2334z"/>
   <path d="m482.9 267.75q-9.5781 0-13.272 2.1905t-3.6938 7.4735q0 4.2092 2.7489 6.7003 2.7918 2.4482 7.5594 2.4482 6.5715 0 10.523-4.6387 3.9944-4.6816 3.9944-12.413v-1.761zm15.763-3.2643v27.446h-7.903v-7.3016q-2.7059 4.381-6.7433 6.4856-4.0374 2.0616-9.8787 2.0616-7.3876 0-11.769-4.1233-4.338-4.1662-4.338-11.124 0-8.1177 5.4118-12.241 5.4548-4.1233 16.235-4.1233h11.081v-0.77312q0-5.4548-3.6079-8.4184-3.5649-3.0066-10.051-3.0066-4.1233 0-8.0318 0.98787-3.9085 0.98788-7.5164 2.9636v-7.3017q4.338-1.6751 8.4184-2.4912 4.0803-0.85902 7.9459-0.85902 10.437 0 15.591 5.4118 5.1541 5.4118 5.1541 16.407z"/>
   <path d="m554.93 262.89v29.035h-7.903v-28.777q0-6.8292-2.663-10.222-2.663-3.3931-7.9889-3.3931-6.3997 0-10.093 4.0803-3.6938 4.0803-3.6938 11.124v27.188h-7.9459v-48.105h7.9459v7.4735q2.8348-4.338 6.6574-6.4856 3.8656-2.1475 8.8908-2.1475 8.2895 0 12.542 5.1541 4.2521 5.1112 4.2521 15.076z"/>
   <path d="m618.67 296.4q-3.3502 8.5902-6.5285 11.21-3.1784 2.62-8.5043 2.62h-6.3138v-6.6144h4.6387q3.2643 0 5.0682-1.5462 1.8039-1.5462 3.9944-7.3017l1.4174-3.6079-19.457-47.332h8.3754l15.033 37.625 15.033-37.625h8.3754z"/>
   <path d="m669.35 249.36q-6.3567 0-10.051 4.9823-3.6938 4.9394-3.6938 13.572 0 8.6331 3.6508 13.615 3.6938 4.9394 10.093 4.9394 6.3138 0 10.008-4.9823t3.6938-13.572q0-8.5472-3.6938-13.53-3.6938-5.0253-10.008-5.0253zm0-6.7003q10.308 0 16.192 6.7003 5.8843 6.7004 5.8843 18.555 0 11.812-5.8843 18.555-5.8843 6.7003-16.192 6.7003-10.351 0-16.235-6.7003-5.8413-6.7433-5.8413-18.555 0-11.854 5.8413-18.555 5.8843-6.7003 16.235-6.7003z"/>
   <path d="m703.71 272.94v-29.121h7.903v28.82q0 6.8292 2.663 10.265 2.663 3.3931 7.9889 3.3931 6.3997 0 10.093-4.0803 3.7367-4.0803 3.7367-11.124v-27.274h7.903v48.105h-7.903v-7.3876q-2.8777 4.381-6.7003 6.5285-3.7797 2.1046-8.8049 2.1046-8.2895 0-12.585-5.1541-4.2951-5.1541-4.2951-15.076z"/>
  </g>
 </g>
</svg>
